# xmcd
#
# Track frame offsets:
#	150
#	10887
#	23270
#	36988
#	48928
#	61331
#	73895
#	85450
#	99737
#	111200
#	124689
#	136027
#	149433
#	161781
#	172414
#	184074
#	197366
#	209311
#	221279
#	237052
#
# Disc length: 3322
#
# Revision: 1
# Processed by: cddbd v1.5.1PL0 Copyright (c) Steve Scherf et al.
# Submitted via: CDex 1.40Release
# Normalized: r0:DSETVAR1
#
DISCID=1c0cf814
DTITLE=Various Artist - The Ultimate Yodelling Collection
DYEAR=2003
DGENRE=Country
TTITLE0=Eddy Arnold - The Cattle Call
TTITLE1=Slim Whitman - I'm Casting My Lasso Towards the Sky
TTITLE2=Gene Autry - A Yodeling Hobo
TTITLE3=Hank Williams - Long Gone Lonesome Blues
TTITLE4=Roy Rogers - Headin' for Texas and Home
TTITLE5=Hank Snow - Lonesome Blue Yodel
TTITLE6=Rex Griffin - Lovesick Blues
TTITLE7=Jimmie Rodgers - Whippin' That Old TB
TTITLE8=Ernest Tubb - Married Man Blues
TTITLE9=Jimmie Davis - You Can't Tell About the Women Nowadays
TTITLE10=Rex Allen - Chime Bells
TTITLE11=The Carter Family - Carter's Blues
TTITLE12=Bill Monroe - Mule Skinner Blues
TTITLE13=Bob Wills and His Texas Playboys - Blue Yodel No. 1
TTITLE14=Gene Autry - I've Always Been a Rambler
TTITLE15=Jimmie Rodgers and Sara Carter - The Wonderful City
TTITLE16=Hank Snow - Yodelling Back to You
TTITLE17=Ernest Tubb - Mean Old Bed Bug Blues
TTITLE18=Girls of the Golden West - I Want to Be a Real Cowboy Girl
TTITLE19=Rex Griffin - The Last Love Call Yodel
EXTD=YEAR: 2003 ID3G: 2
EXTT0=
EXTT1=
EXTT2=
EXTT3=
EXTT4=
EXTT5=
EXTT6=
EXTT7=
EXTT8=
EXTT9=
EXTT10=
EXTT11=
EXTT12=
EXTT13=
EXTT14=
EXTT15=
EXTT16=
EXTT17=
EXTT18=
EXTT19=
PLAYORDER=
